<svg width="19" height="23" viewBox="0 0 19 23" fill="none" xmlns="http://www.w3.org/2000/svg">
<path d="M3.66681 7.66797L3.66681 7.00063C3.66681 5.13686 3.66681 4.20498 3.97129 3.4699C4.37727 2.48979 5.15596 1.71109 6.13607 1.30511C6.87116 1.00063 7.80304 1.00063 9.6668 1.00063V1.00063C11.5306 1.00063 12.4625 1.00063 13.1975 1.30511C14.1777 1.71109 14.9563 2.48978 15.3623 3.4699C15.6668 4.20498 15.6668 5.13686 15.6668 7.00063L15.6668 7.66797" stroke="#FEFFFC" stroke-linecap="round"/>
<path d="M1 9.59414C1 7.89708 1 7.04856 1.52721 6.52135C2.05442 5.99414 2.90294 5.99414 4.6 5.99414H14.7333C16.4304 5.99414 17.2789 5.99414 17.8061 6.52135C18.3333 7.04856 18.3333 7.89708 18.3333 9.59414V15.9958C18.3333 18.8242 18.3333 20.2384 17.4547 21.1171C16.576 21.9957 15.1618 21.9957 12.3333 21.9957H7C4.17157 21.9957 2.75736 21.9957 1.87868 21.1171C1 20.2384 1 18.8242 1 15.9957V9.59414Z" stroke="#FEFFFC"/>
</svg>
