<svg width="24" height="24" viewBox="0 0 24 24" fill="none" xmlns="http://www.w3.org/2000/svg">
<path fill-rule="evenodd" clip-rule="evenodd" d="M0 5.23452C0 3.40129 3.25205e-08 2.48468 0.356825 1.78631C0.671789 1.17182 1.17182 0.671789 1.78631 0.356825C2.48686 3.25205e-08 3.40129 0 5.23452 0H18.7655C20.5987 0 21.5153 3.25205e-08 22.2137 0.356825C22.8282 0.671789 23.3282 1.17182 23.6432 1.78631C24 2.48686 24 3.40129 24 5.23452V18.7655C24 20.5987 24 21.5153 23.6432 22.2137C23.3294 22.8291 22.8291 23.3294 22.2137 23.6432C21.5131 24 20.5987 24 18.7655 24H5.23452C3.40129 24 2.48468 24 1.78631 23.6432C1.17093 23.3294 0.670574 22.8291 0.356825 22.2137C3.25205e-08 21.5131 0 20.5987 0 18.7655V5.23452ZM5.23779 1.08793H18.7688C19.7039 1.08793 20.3401 1.08793 20.8311 1.1294C21.3091 1.16759 21.5546 1.23852 21.7248 1.32582C22.1351 1.53533 22.469 1.86924 22.6785 2.27953C22.7658 2.44976 22.8368 2.69419 22.875 3.17323C22.9153 3.66427 22.9164 4.29717 22.9164 5.23561V18.7666C22.9164 19.7017 22.9153 20.3379 22.875 20.829C22.8357 21.3069 22.7648 21.5524 22.6785 21.7227C22.4693 22.1333 22.1355 22.4671 21.7248 22.6764C21.5546 22.7637 21.3091 22.8346 20.8311 22.8728C20.3401 22.9121 19.7072 22.9132 18.7688 22.9132H15.7352V13.8671H18.2777L18.6771 11.0736H15.7417V9.87324C15.7417 9.66955 15.7552 9.48513 15.7821 9.32C15.8989 8.61835 16.283 8.27244 17.0916 8.27244H18.7066V5.59898L18.6891 5.59571C18.3988 5.55642 17.8019 5.47567 16.6922 5.47567C14.3243 5.47567 12.9384 6.71965 12.9384 9.5677V11.0736H10.1449V13.8671H12.9384V22.9132H5.24543C4.31027 22.9132 3.67409 22.9132 3.18305 22.8717C2.7051 22.8335 2.45958 22.7626 2.28935 22.6753C1.87872 22.466 1.54487 22.1322 1.33564 21.7216C1.24834 21.5513 1.17741 21.3069 1.13922 20.8279C1.09885 20.3368 1.09885 19.7039 1.09885 18.7655V5.23452C1.09885 4.29935 1.09885 3.66318 1.13922 3.17214C1.1785 2.69419 1.24943 2.44867 1.33564 2.27844C1.54515 1.86815 1.87906 1.53424 2.28935 1.32472C2.45958 1.23743 2.7051 1.1665 3.18414 1.12831C3.67518 1.08902 4.30808 1.08793 5.24652 1.08793H5.23779Z" fill="#FEFFFC"/>
</svg>
