<svg width="20" height="20" viewBox="0 0 20 20" fill="none" xmlns="http://www.w3.org/2000/svg">
<g clip-path="url(#clip0_1383_1042)">
<path d="M20 9.81248C20 4.52048 15.5229 0.230469 10 0.230469C4.47715 0.230469 0 4.52048 0 9.81248C0 14.5951 3.65684 18.5592 8.4375 19.2781V12.5823H5.89844V9.81248H8.4375V7.70144C8.4375 5.29996 9.9305 3.97344 12.2146 3.97344C13.3088 3.97344 14.4531 4.16059 14.4531 4.16059V6.51867H13.1922C11.95 6.51867 11.5625 7.25735 11.5625 8.01514V9.81248H14.3359L13.8926 12.5823H11.5625V19.2781C16.3432 18.5592 20 14.5952 20 9.81248Z" fill="#333333"/>
</g>
<defs>
<clipPath id="clip0_1383_1042">
<rect width="20" height="20" fill="white"/>
</clipPath>
</defs>
</svg>
