<svg width="18" height="18" viewBox="0 0 18 18" fill="none" xmlns="http://www.w3.org/2000/svg">
<path fill-rule="evenodd" clip-rule="evenodd" d="M3.85746 0C2.83466 -7.54191e-08 1.85372 0.406206 1.13035 1.1293C0.406976 1.85239 0.000392782 2.83317 0 3.85598V14.1425C0 15.1656 0.40641 16.1468 1.12982 16.8702C1.85324 17.5936 2.8344 18 3.85746 18H14.144C15.1668 17.9996 16.1476 17.593 16.8707 16.8697C17.5938 16.1463 18 15.1653 18 14.1425V3.85598C17.9996 2.83343 17.5932 1.85287 16.8702 1.12982C16.1471 0.406772 15.1666 0.000392609 14.144 0H3.85746ZM15.2536 3.8619C15.2536 4.15657 15.1365 4.43916 14.9281 4.64751C14.7198 4.85587 14.4372 4.97292 14.1425 4.97292C13.8479 4.97292 13.5653 4.85587 13.3569 4.64751C13.1486 4.43916 13.0315 4.15657 13.0315 3.8619C13.0315 3.56724 13.1486 3.28465 13.3569 3.0763C13.5653 2.86794 13.8479 2.75089 14.1425 2.75089C14.4372 2.75089 14.7198 2.86794 14.9281 3.0763C15.1365 3.28465 15.2536 3.56724 15.2536 3.8619ZM9.00222 5.91803C8.18503 5.91803 7.40131 6.24266 6.82347 6.8205C6.24562 7.39834 5.92099 8.18207 5.92099 8.99926C5.92099 9.81645 6.24562 10.6002 6.82347 11.178C7.40131 11.7559 8.18503 12.0805 9.00222 12.0805C9.81941 12.0805 10.6031 11.7559 11.181 11.178C11.7588 10.6002 12.0835 9.81645 12.0835 8.99926C12.0835 8.18207 11.7588 7.39834 11.181 6.8205C10.6031 6.24266 9.81941 5.91803 9.00222 5.91803ZM4.43815 8.99926C4.43815 7.78919 4.91885 6.62867 5.7745 5.77302C6.63016 4.91737 7.79067 4.43667 9.00074 4.43667C10.2108 4.43667 11.3713 4.91737 12.227 5.77302C13.0826 6.62867 13.5633 7.78919 13.5633 8.99926C13.5633 10.2093 13.0826 11.3698 12.227 12.2255C11.3713 13.0811 10.2108 13.5618 9.00074 13.5618C7.79067 13.5618 6.63016 13.0811 5.7745 12.2255C4.91885 11.3698 4.43815 10.2093 4.43815 8.99926Z" fill="#333333"/>
</svg>
