<svg width="9" height="9" viewBox="0 0 9 9" fill="none" xmlns="http://www.w3.org/2000/svg">
<path d="M6.682 5.10053C6.59425 5.68553 6.37 6.16328 5.9995 6.51428C5.629 6.86528 5.15125 7.04078 4.56625 7.04078C3.86424 7.04078 3.29874 6.80678 2.87949 6.32903C2.45049 5.86103 2.24574 5.22728 2.24574 4.43753C2.24574 3.61853 2.45049 2.96528 2.87949 2.47778C3.30849 1.99028 3.87399 1.73678 4.58575 1.73678C5.16099 1.73678 5.629 1.89278 5.98975 2.19503C6.3505 2.50703 6.565 2.92628 6.643 3.46253H6.01899C5.85325 2.65328 5.3755 2.24378 4.59549 2.24378C4.06899 2.24378 3.64974 2.43878 3.33774 2.82878C3.02574 3.21878 2.87949 3.73553 2.87949 4.38878C2.87949 5.05178 3.02574 5.56853 3.32799 5.95853C3.62049 6.34853 4.02999 6.53378 4.537 6.53378C4.95624 6.53378 5.29749 6.41678 5.57049 6.16328C5.83375 5.90978 5.9995 5.55878 6.06775 5.10053H6.682Z" fill="#BABABA"/>
<circle cx="4.5" cy="4.5" r="4.3875" stroke="#BABABA" stroke-width="0.225"/>
</svg>
